<svg xmlns="http://www.w3.org/2000/svg" xmlns:xlink="http://www.w3.org/1999/xlink" width="196" zoomAndPan="magnify" viewBox="0 0 147 30.000001" height="40" preserveAspectRatio="xMidYMid meet" version="1.0"><defs><clipPath id="4b98ec4970"><path d="M 2.371094 4.152344 L 25 4.152344 L 25 25.203125 L 2.371094 25.203125 Z M 2.371094 4.152344 " clip-rule="nonzero"/></clipPath><clipPath id="40691da447"><path d="M 11 14 L 21 14 L 21 25.203125 L 11 25.203125 Z M 11 14 " clip-rule="nonzero"/></clipPath><clipPath id="aaf5bd14cd"><path d="M 20 14 L 29 14 L 29 25.203125 L 20 25.203125 Z M 20 14 " clip-rule="nonzero"/></clipPath><clipPath id="20423413b4"><path d="M 130 7 L 144.628906 7 L 144.628906 23 L 130 23 Z M 130 7 " clip-rule="nonzero"/></clipPath></defs><g clip-path="url(#4b98ec4970)"><path fill="#11237a" d="M 20.558594 14.675781 L 24.695312 14.675781 L 20.007812 4.171875 L 11.746094 4.171875 L 2.371094 25.179688 L 6.507812 25.179688 L 15.875 4.183594 Z M 20.558594 14.675781 " fill-opacity="1" fill-rule="nonzero"/></g><g clip-path="url(#40691da447)"><path fill="#11237a" d="M 11.21875 14.675781 L 15.90625 25.179688 L 20.042969 25.179688 L 15.355469 14.675781 Z M 11.21875 14.675781 " fill-opacity="1" fill-rule="nonzero"/></g><g clip-path="url(#aaf5bd14cd)"><path fill="#11237a" d="M 24.75 14.675781 L 20.0625 25.179688 L 24.199219 25.179688 L 28.886719 14.675781 Z M 24.75 14.675781 " fill-opacity="1" fill-rule="nonzero"/></g><path fill="#11237a" d="M 43.644531 7.777344 L 42.867188 7.777344 L 38.394531 22.292969 L 35.835938 22.292969 L 41.101562 7.242188 L 45.359375 7.242188 L 50.640625 22.292969 L 48.046875 22.292969 Z M 38.714844 16.507812 L 47.34375 16.507812 L 47.34375 18.617188 L 38.714844 18.617188 Z M 38.714844 16.507812 " fill-opacity="1" fill-rule="nonzero"/><path fill="#11237a" d="M 52.191406 11.542969 L 54.351562 11.542969 L 54.519531 12.59375 C 54.886719 12.214844 55.308594 11.921875 55.789062 11.714844 C 56.296875 11.496094 56.828125 11.386719 57.378906 11.390625 C 58.128906 11.375 58.835938 11.550781 59.496094 11.917969 C 60.117188 12.285156 60.582031 12.800781 60.882812 13.464844 C 61.238281 14.277344 61.398438 15.125 61.371094 16.011719 L 61.371094 22.292969 L 58.964844 22.292969 L 58.964844 16.359375 C 58.964844 15.441406 58.789062 14.753906 58.433594 14.292969 C 58.082031 13.835938 57.546875 13.605469 56.828125 13.605469 C 56.105469 13.605469 55.535156 13.847656 55.15625 14.304688 C 54.773438 14.765625 54.582031 15.464844 54.582031 16.378906 L 54.582031 22.292969 L 52.191406 22.292969 Z M 52.191406 11.542969 " fill-opacity="1" fill-rule="nonzero"/><path fill="#11237a" d="M 65.566406 9.914062 C 65.136719 9.925781 64.769531 9.773438 64.46875 9.460938 C 64.164062 9.167969 64.015625 8.8125 64.023438 8.386719 C 64.015625 8.175781 64.050781 7.972656 64.128906 7.777344 C 64.203125 7.582031 64.316406 7.410156 64.460938 7.261719 C 64.605469 7.109375 64.773438 6.996094 64.96875 6.917969 C 65.160156 6.835938 65.359375 6.800781 65.566406 6.804688 C 65.992188 6.796875 66.355469 6.949219 66.648438 7.261719 C 66.957031 7.570312 67.105469 7.945312 67.09375 8.382812 C 67.097656 8.804688 66.949219 9.164062 66.648438 9.457031 C 66.355469 9.769531 65.992188 9.921875 65.566406 9.914062 Z M 64.359375 11.546875 L 66.75 11.546875 L 66.75 22.292969 L 64.359375 22.292969 Z M 64.359375 11.546875 " fill-opacity="1" fill-rule="nonzero"/><path fill="#11237a" d="M 69.902344 11.542969 L 72.066406 11.542969 L 72.253906 12.894531 C 72.535156 12.539062 72.863281 12.238281 73.242188 11.996094 C 73.625 11.75 74.035156 11.585938 74.480469 11.5 C 74.933594 11.414062 75.378906 11.425781 75.824219 11.542969 L 75.824219 13.777344 C 75.441406 13.648438 75.046875 13.613281 74.648438 13.679688 C 74.234375 13.75 73.851562 13.902344 73.507812 14.140625 C 73.121094 14.414062 72.828125 14.765625 72.628906 15.199219 C 72.382812 15.738281 72.269531 16.300781 72.289062 16.894531 L 72.289062 22.292969 L 69.902344 22.292969 Z M 69.902344 11.542969 " fill-opacity="1" fill-rule="nonzero"/><path fill="#11237a" d="M 86.746094 22.292969 L 84.570312 22.292969 L 84.421875 21.214844 C 84.0625 21.605469 83.644531 21.902344 83.160156 22.113281 C 82.660156 22.332031 82.132812 22.441406 81.585938 22.433594 C 80.828125 22.453125 80.113281 22.277344 79.449219 21.910156 C 78.820312 21.542969 78.355469 21.027344 78.050781 20.359375 C 77.699219 19.554688 77.539062 18.714844 77.566406 17.832031 L 77.566406 11.542969 L 79.953125 11.542969 L 79.953125 17.5 C 79.953125 18.398438 80.132812 19.082031 80.484375 19.550781 C 80.835938 20.019531 81.382812 20.25 82.113281 20.25 C 82.777344 20.285156 83.332031 20.050781 83.777344 19.550781 C 84.179688 19.082031 84.378906 18.398438 84.378906 17.5 L 84.378906 11.542969 L 86.746094 11.542969 Z M 86.746094 22.292969 " fill-opacity="1" fill-rule="nonzero"/><path fill="#11237a" d="M 97.351562 13.132812 L 97.074219 13.199219 L 97.074219 6.804688 L 99.488281 6.804688 L 99.488281 22.292969 L 97.308594 22.292969 L 97.136719 20.960938 C 96.738281 21.402344 96.273438 21.75 95.742188 22.011719 C 95.105469 22.316406 94.433594 22.460938 93.730469 22.441406 C 93.296875 22.457031 92.867188 22.40625 92.449219 22.289062 C 92.027344 22.171875 91.636719 22 91.265625 21.765625 C 90.898438 21.53125 90.570312 21.246094 90.28125 20.914062 C 89.996094 20.582031 89.765625 20.214844 89.585938 19.8125 C 89.167969 18.890625 88.96875 17.921875 88.992188 16.910156 C 88.96875 15.898438 89.167969 14.929688 89.585938 14.007812 C 89.765625 13.605469 89.996094 13.238281 90.28125 12.90625 C 90.570312 12.574219 90.898438 12.289062 91.265625 12.054688 C 91.636719 11.820312 92.027344 11.644531 92.449219 11.53125 C 92.867188 11.414062 93.296875 11.363281 93.730469 11.378906 C 94.503906 11.359375 95.234375 11.527344 95.921875 11.882812 C 96.496094 12.183594 96.972656 12.601562 97.351562 13.132812 Z M 91.554688 16.917969 C 91.515625 17.816406 91.765625 18.617188 92.3125 19.324219 C 92.558594 19.628906 92.851562 19.859375 93.203125 20.023438 C 93.550781 20.183594 93.917969 20.261719 94.304688 20.25 C 94.796875 20.25 95.257812 20.121094 95.679688 19.863281 C 96.125 19.585938 96.464844 19.207031 96.695312 18.734375 C 96.96875 18.160156 97.09375 17.554688 97.074219 16.917969 C 97.09375 16.28125 96.96875 15.671875 96.695312 15.097656 C 96.460938 14.628906 96.121094 14.253906 95.679688 13.980469 C 95.257812 13.71875 94.796875 13.589844 94.304688 13.59375 C 93.917969 13.582031 93.554688 13.65625 93.203125 13.816406 C 92.855469 13.976562 92.558594 14.207031 92.3125 14.507812 C 91.765625 15.214844 91.511719 16.019531 91.554688 16.917969 Z M 91.554688 16.917969 " fill-opacity="1" fill-rule="nonzero"/><path fill="#11237a" d="M 102.28125 6.804688 L 104.671875 6.804688 L 104.671875 12.519531 C 105.035156 12.160156 105.449219 11.886719 105.921875 11.691406 C 106.457031 11.476562 107.015625 11.375 107.59375 11.382812 C 108.328125 11.371094 109.019531 11.546875 109.667969 11.910156 C 110.292969 12.273438 110.757812 12.789062 111.0625 13.457031 C 111.417969 14.269531 111.582031 15.121094 111.550781 16.011719 L 111.550781 22.292969 L 109.050781 22.292969 L 109.050781 16.335938 C 109.050781 15.433594 108.875 14.753906 108.523438 14.292969 C 108.171875 13.835938 107.636719 13.605469 106.910156 13.605469 C 106.175781 13.605469 105.621094 13.839844 105.238281 14.304688 C 104.859375 14.769531 104.671875 15.460938 104.671875 16.371094 L 104.671875 22.292969 L 102.28125 22.292969 Z M 102.28125 6.804688 " fill-opacity="1" fill-rule="nonzero"/><g clip-path="url(#20423413b4)"><path fill="#11237a" d="M 141.941406 7.492188 L 144.628906 7.492188 L 139.085938 22.539062 L 136.144531 22.539062 L 130.640625 7.492188 L 133.328125 7.492188 L 137.625 20.171875 Z M 141.941406 7.492188 " fill-opacity="1" fill-rule="nonzero"/></g><path fill="#11237a" d="M 126.246094 8.027344 L 125.464844 8.027344 L 120.992188 22.539062 L 118.449219 22.539062 L 123.71875 7.492188 L 127.960938 7.492188 L 133.230469 22.539062 L 130.640625 22.539062 Z M 121.316406 16.757812 L 129.949219 16.757812 L 129.949219 18.863281 L 121.316406 18.863281 Z M 121.316406 16.757812 " fill-opacity="1" fill-rule="nonzero"/></svg>