<svg xmlns="http://www.w3.org/2000/svg" xmlns:xlink="http://www.w3.org/1999/xlink" width="604" zoomAndPan="magnify" viewBox="0 0 452.88 66" height="88" preserveAspectRatio="xMidYMid meet" version="1.0"><defs><clipPath id="445bb0a2d4"><path d="M 0 0.0078125 L 72 0.0078125 L 72 65.992188 L 0 65.992188 Z M 0 0.0078125 " clip-rule="nonzero"/></clipPath><clipPath id="56c7187651"><path d="M 28 33 L 57 33 L 57 65.992188 L 28 65.992188 Z M 28 33 " clip-rule="nonzero"/></clipPath><clipPath id="92ac3876cb"><path d="M 56 33 L 85 33 L 85 65.992188 L 56 65.992188 Z M 56 33 " clip-rule="nonzero"/></clipPath><clipPath id="d8c17db866"><path d="M 408 10 L 452.761719 10 L 452.761719 58 L 408 58 Z M 408 10 " clip-rule="nonzero"/></clipPath></defs><g clip-path="url(#445bb0a2d4)"><path fill="#000000" d="M 57.894531 33.152344 L 71.066406 33.152344 L 56.140625 0.0820312 L 29.839844 0.0820312 L 0 66.230469 L 13.167969 66.230469 L 42.996094 0.117188 Z M 57.894531 33.152344 " fill-opacity="1" fill-rule="nonzero"/></g><g clip-path="url(#56c7187651)"><path fill="#000000" d="M 28.160156 33.152344 L 43.085938 66.230469 L 56.253906 66.230469 L 41.332031 33.152344 Z M 28.160156 33.152344 " fill-opacity="1" fill-rule="nonzero"/></g><g clip-path="url(#92ac3876cb)"><path fill="#000000" d="M 71.246094 33.152344 L 56.324219 66.230469 L 69.492188 66.230469 L 84.417969 33.152344 Z M 71.246094 33.152344 " fill-opacity="1" fill-rule="nonzero"/></g><path fill="#000000" d="M 131.390625 11.429688 L 128.925781 11.429688 L 114.683594 57.132812 L 106.535156 57.132812 L 123.304688 9.742188 L 136.847656 9.742188 L 153.660156 57.132812 L 145.414062 57.132812 Z M 115.695312 38.921875 L 143.167969 38.921875 L 143.167969 45.554688 L 115.695312 45.554688 Z M 115.695312 38.921875 " fill-opacity="1" fill-rule="nonzero"/><path fill="#000000" d="M 158.609375 23.285156 L 165.480469 23.285156 L 166.019531 26.597656 C 167.179688 25.398438 168.527344 24.472656 170.0625 23.828125 C 171.675781 23.136719 173.359375 22.796875 175.113281 22.8125 C 177.507812 22.757812 179.757812 23.308594 181.859375 24.46875 C 183.839844 25.628906 185.308594 27.253906 186.273438 29.339844 C 187.398438 31.894531 187.917969 34.570312 187.824219 37.359375 L 187.824219 57.132812 L 180.164062 57.132812 L 180.164062 38.445312 C 180.164062 35.5625 179.601562 33.398438 178.480469 31.945312 C 177.355469 30.507812 175.652344 29.785156 173.359375 29.785156 C 171.066406 29.785156 169.25 30.539062 168.039062 31.984375 C 166.824219 33.429688 166.214844 35.628906 166.214844 38.511719 L 166.214844 57.132812 L 158.609375 57.132812 Z M 158.609375 23.285156 " fill-opacity="1" fill-rule="nonzero"/><path fill="#000000" d="M 201.183594 18.15625 C 200.527344 18.171875 199.894531 18.058594 199.285156 17.808594 C 198.675781 17.5625 198.144531 17.203125 197.683594 16.734375 C 197.222656 16.292969 196.871094 15.777344 196.625 15.191406 C 196.378906 14.601562 196.257812 13.988281 196.265625 13.351562 C 196.257812 13.023438 196.28125 12.699219 196.335938 12.375 C 196.394531 12.050781 196.480469 11.738281 196.601562 11.433594 C 196.722656 11.128906 196.871094 10.835938 197.050781 10.5625 C 197.230469 10.289062 197.433594 10.035156 197.664062 9.800781 C 197.890625 9.566406 198.144531 9.359375 198.414062 9.179688 C 198.6875 8.996094 198.972656 8.84375 199.277344 8.71875 C 199.578125 8.597656 199.890625 8.503906 200.210938 8.445312 C 200.53125 8.386719 200.855469 8.359375 201.183594 8.367188 C 201.832031 8.355469 202.457031 8.476562 203.058594 8.726562 C 203.65625 8.980469 204.179688 9.339844 204.632812 9.8125 C 205.097656 10.277344 205.457031 10.8125 205.703125 11.425781 C 205.949219 12.039062 206.0625 12.675781 206.046875 13.335938 C 206.054688 13.972656 205.933594 14.585938 205.6875 15.175781 C 205.441406 15.761719 205.089844 16.277344 204.632812 16.71875 C 204.183594 17.1875 203.65625 17.550781 203.058594 17.800781 C 202.457031 18.050781 201.832031 18.167969 201.183594 18.15625 Z M 197.34375 23.300781 L 204.953125 23.300781 L 204.953125 57.132812 L 197.34375 57.132812 Z M 197.34375 23.300781 " fill-opacity="1" fill-rule="nonzero"/><path fill="#000000" d="M 214.992188 23.285156 L 221.871094 23.285156 L 222.480469 27.546875 C 223.371094 26.425781 224.417969 25.480469 225.621094 24.707031 C 226.835938 23.9375 228.148438 23.417969 229.5625 23.148438 C 231 22.875 232.425781 22.921875 233.84375 23.285156 L 233.84375 30.328125 C 232.617188 29.914062 231.367188 29.808594 230.09375 30.019531 C 228.777344 30.234375 227.566406 30.71875 226.457031 31.472656 C 225.230469 32.328125 224.296875 33.433594 223.664062 34.792969 C 222.882812 36.488281 222.523438 38.273438 222.582031 40.140625 L 222.582031 57.132812 L 214.992188 57.132812 Z M 214.992188 23.285156 " fill-opacity="1" fill-rule="nonzero"/><path fill="#000000" d="M 268.613281 57.132812 L 261.679688 57.132812 L 261.207031 53.742188 C 260.070312 54.96875 258.734375 55.910156 257.199219 56.566406 C 255.597656 57.257812 253.925781 57.597656 252.183594 57.582031 C 249.769531 57.640625 247.5 57.085938 245.378906 55.925781 C 243.378906 54.773438 241.898438 53.148438 240.933594 51.046875 C 239.808594 48.515625 239.292969 45.863281 239.382812 43.09375 L 239.382812 23.285156 L 246.988281 23.285156 L 246.988281 42.039062 C 246.988281 44.875 247.550781 47.027344 248.675781 48.5 C 249.800781 49.972656 251.527344 50.703125 253.863281 50.699219 C 254.863281 50.75 255.828125 50.585938 256.757812 50.199219 C 257.683594 49.816406 258.484375 49.25 259.15625 48.5 C 260.433594 47.027344 261.074219 44.875 261.074219 42.039062 L 261.074219 23.285156 L 268.613281 23.285156 Z M 268.613281 57.132812 " fill-opacity="1" fill-rule="nonzero"/><path fill="#000000" d="M 302.367188 28.292969 L 301.488281 28.496094 L 301.488281 8.367188 L 309.171875 8.367188 L 309.171875 57.132812 L 302.230469 57.132812 L 301.691406 52.9375 C 300.421875 54.324219 298.941406 55.429688 297.246094 56.25 C 295.222656 57.210938 293.085938 57.664062 290.847656 57.605469 C 289.460938 57.648438 288.101562 57.484375 286.765625 57.121094 C 285.429688 56.757812 284.171875 56.210938 282.996094 55.472656 C 281.824219 54.734375 280.78125 53.84375 279.867188 52.792969 C 278.957031 51.746094 278.214844 50.589844 277.648438 49.320312 C 276.316406 46.421875 275.6875 43.375 275.757812 40.183594 C 275.6875 36.996094 276.316406 33.949219 277.648438 31.050781 C 278.214844 29.78125 278.957031 28.625 279.867188 27.578125 C 280.78125 26.527344 281.824219 25.636719 282.996094 24.898438 C 284.171875 24.160156 285.429688 23.613281 286.765625 23.25 C 288.101562 22.886719 289.460938 22.722656 290.847656 22.765625 C 293.304688 22.703125 295.632812 23.230469 297.824219 24.355469 C 299.648438 25.308594 301.164062 26.621094 302.367188 28.292969 Z M 283.914062 40.207031 C 283.851562 41.578125 284.03125 42.914062 284.445312 44.21875 C 284.863281 45.523438 285.492188 46.714844 286.335938 47.792969 C 287.109375 48.742188 288.050781 49.476562 289.164062 49.984375 C 290.277344 50.496094 291.445312 50.734375 292.667969 50.699219 C 294.242188 50.707031 295.699219 50.300781 297.046875 49.480469 C 298.464844 48.605469 299.542969 47.421875 300.285156 45.925781 C 301.152344 44.117188 301.554688 42.214844 301.488281 40.207031 C 301.554688 38.199219 301.152344 36.292969 300.285156 34.484375 C 299.539062 33 298.460938 31.824219 297.046875 30.960938 C 295.699219 30.136719 294.242188 29.730469 292.667969 29.738281 C 291.445312 29.703125 290.28125 29.9375 289.167969 30.441406 C 288.054688 30.949219 287.109375 31.675781 286.335938 32.625 C 285.492188 33.703125 284.863281 34.894531 284.445312 36.199219 C 284.03125 37.503906 283.851562 38.839844 283.914062 40.207031 Z M 283.914062 40.207031 " fill-opacity="1" fill-rule="nonzero"/><path fill="#000000" d="M 318.0625 8.367188 L 325.679688 8.367188 L 325.679688 26.367188 C 326.832031 25.234375 328.15625 24.363281 329.652344 23.757812 C 331.359375 23.082031 333.136719 22.753906 334.972656 22.78125 C 337.320312 22.742188 339.523438 23.292969 341.578125 24.4375 C 343.570312 25.589844 345.054688 27.214844 346.023438 29.308594 C 347.152344 31.875 347.667969 34.558594 347.574219 37.359375 L 347.574219 57.132812 L 339.621094 57.132812 L 339.621094 38.378906 C 339.621094 35.535156 339.0625 33.390625 337.941406 31.945312 C 336.820312 30.5 335.109375 29.78125 332.808594 29.785156 C 330.46875 29.785156 328.695312 30.519531 327.484375 31.984375 C 326.277344 33.449219 325.671875 35.617188 325.679688 38.492188 L 325.679688 57.132812 L 318.0625 57.132812 Z M 318.0625 8.367188 " fill-opacity="1" fill-rule="nonzero"/><g clip-path="url(#d8c17db866)"><path fill="#000000" d="M 444.320312 10.535156 L 452.878906 10.535156 L 435.226562 57.914062 L 425.867188 57.914062 L 408.347656 10.535156 L 416.902344 10.535156 L 430.582031 50.449219 Z M 444.320312 10.535156 " fill-opacity="1" fill-rule="nonzero"/></g><path fill="#000000" d="M 394.363281 12.214844 L 391.871094 12.214844 L 377.632812 57.914062 L 369.535156 57.914062 L 386.3125 10.535156 L 399.816406 10.535156 L 416.59375 57.914062 L 408.347656 57.914062 Z M 378.664062 39.710938 L 406.152344 39.710938 L 406.152344 46.339844 L 378.664062 46.339844 Z M 378.664062 39.710938 " fill-opacity="1" fill-rule="nonzero"/></svg>