<svg xmlns="http://www.w3.org/2000/svg" xmlns:xlink="http://www.w3.org/1999/xlink" width="500" zoomAndPan="magnify" viewBox="0 0 375 374.999991" height="500" preserveAspectRatio="xMidYMid meet" version="1.0"><defs><clipPath id="56849b2310"><path d="M 37.5 62.132812 L 290 62.132812 L 290 295.382812 L 37.5 295.382812 Z M 37.5 62.132812 " clip-rule="nonzero"/></clipPath><clipPath id="82dd61e5df"><path d="M 137 178 L 238 178 L 238 295.382812 L 137 295.382812 Z M 137 178 " clip-rule="nonzero"/></clipPath><clipPath id="abbaf84ff3"><path d="M 237 178 L 337.5 178 L 337.5 295.382812 L 237 295.382812 Z M 237 178 " clip-rule="nonzero"/></clipPath></defs><path fill="#ffffff" d="M 187.5 0 C 83.945312 0 0 83.945312 0 187.5 C 0 291.054688 83.945312 375 187.5 375 C 291.054688 375 375 291.054688 375 187.5 C 375 83.945312 291.054688 0 187.5 0 " fill-opacity="1" fill-rule="nonzero"/><g clip-path="url(#56849b2310)"><path fill="#11237a" d="M 243.132812 178.742188 L 289.832031 178.742188 L 236.910156 62.132812 L 143.644531 62.132812 L 37.828125 295.382812 L 84.53125 295.382812 L 190.289062 62.265625 Z M 243.132812 178.742188 " fill-opacity="1" fill-rule="nonzero"/></g><g clip-path="url(#82dd61e5df)"><path fill="#11237a" d="M 137.691406 178.742188 L 190.609375 295.382812 L 237.308594 295.382812 L 184.390625 178.742188 Z M 137.691406 178.742188 " fill-opacity="1" fill-rule="nonzero"/></g><g clip-path="url(#abbaf84ff3)"><path fill="#11237a" d="M 290.46875 178.742188 L 237.550781 295.382812 L 284.25 295.382812 L 337.171875 178.742188 Z M 290.46875 178.742188 " fill-opacity="1" fill-rule="nonzero"/></g></svg>